<?xml version="1.0" encoding="UTF-8"?>
<svg version="1.1" xmlns="http://www.w3.org/2000/svg" width="1254" height="1254">
<path d="M0 0 C413.82 0 827.64 0 1254 0 C1254 413.82 1254 827.64 1254 1254 C840.18 1254 426.36 1254 0 1254 C0 840.18 0 426.36 0 0 Z " fill="#010B22" transform="translate(0,0)"/>
<path d="M0 0 C13.9425 -0.0825 27.885 -0.165 42.25 -0.25 C48.72802246 -0.30462402 48.72802246 -0.30462402 55.33691406 -0.36035156 C73.31685597 -0.44840919 91.10506617 -0.22969673 108.984375 1.82421875 C110.06133007 1.9474136 110.06133007 1.9474136 111.16004181 2.07309723 C125.0003664 3.70420095 138.49911464 6.57779839 152 10 C154.09108788 10.52106595 156.18223354 11.04190011 158.2734375 11.5625 C160.1823859 12.04129111 162.09124952 12.52042046 164 13 C164.72219727 13.18038818 165.44439453 13.36077637 166.18847656 13.54663086 C173.09725396 15.28264192 179.8363044 17.10509031 186.3984375 19.89453125 C188.28553396 20.69640557 190.18913836 21.4597802 192.1015625 22.19921875 C218.62215572 32.46051258 244.01105811 45.18311048 267 62 C267.55220215 62.40202637 268.1044043 62.80405273 268.67333984 63.21826172 C278.2894408 70.24842296 287.59408105 77.58524027 296.3828125 85.62890625 C298.46952541 87.51940586 300.58152111 89.3624638 302.71484375 91.19921875 C314.42094843 101.42424909 325.56113866 112.64276281 335 125 C336.04730644 126.3103333 337.09699803 127.61876206 338.1484375 128.92578125 C363.80423261 161.03063307 383.62886302 197.13667169 397 236 C397.4029126 237.16982422 397.8058252 238.33964844 398.22094727 239.54492188 C405.22725348 260.20519231 410.15934779 281.01719636 413.4375 302.5625 C413.56301239 303.38194092 413.68852478 304.20138184 413.81784058 305.0456543 C416.31516314 321.55316174 417.18666391 337.81300226 417.18530273 354.50097656 C417.18747578 357.46694599 417.20566027 360.43253409 417.22460938 363.3984375 C417.28273176 382.36334768 415.76987868 400.93696727 412.1875 419.5625 C411.98800751 420.6187558 411.98800751 420.6187558 411.78448486 421.6963501 C410.8827029 426.46964692 409.94739258 431.23555833 409 436 C408.81099121 436.97791504 408.62198242 437.95583008 408.42724609 438.96337891 C403.50260716 463.9831888 394.28276286 489.17973646 383 512 C382.30464164 513.4322694 381.60932889 514.86456095 380.9140625 516.296875 C378.99145948 520.22356279 377.00532874 524.11507514 375 528 C374.46117187 529.05960938 373.92234375 530.11921875 373.3671875 531.2109375 C360.44817894 555.98797324 343.71751076 578.33918405 324.875 598.87890625 C322.96524418 600.96526799 322.96524418 600.96526799 321.375 603.27734375 C320.694375 604.13005859 320.694375 604.13005859 320 605 C319.34 605 318.68 605 318 605 C317.77699219 605.54914062 317.55398438 606.09828125 317.32421875 606.6640625 C313.1100361 614.09793042 304.66950157 620.74954132 298 626 C297.34 626 296.68 626 296 626 C296 626.66 296 627.32 296 628 C293.93290491 629.7924883 291.85966676 631.46814871 289.6875 633.125 C289.05102539 633.61709961 288.41455078 634.10919922 287.75878906 634.61621094 C282.25179914 638.85469041 276.66059575 642.96910103 271 647 C270.25105469 647.54785156 269.50210937 648.09570312 268.73046875 648.66015625 C243.46110555 666.86959515 215.27161738 680.86308651 185.98339844 691.2824707 C184.51211014 691.81473514 183.04755652 692.36569436 181.58691406 692.92651367 C174.26174198 695.69980514 166.8556681 697.71124274 159.25 699.5625 C158.00573242 699.86768555 156.76146484 700.17287109 155.47949219 700.48730469 C151.98895639 701.33640334 148.49578681 702.17281428 145 703 C144.22011719 703.18481934 143.44023438 703.36963867 142.63671875 703.56005859 C134.54376687 705.43530421 126.35572032 706.55857823 118.125 707.625 C117.18043945 707.74842773 116.23587891 707.87185547 115.26269531 707.99902344 C99.56009797 709.92124712 83.88368007 710.14341249 68.08984375 710.09765625 C66.35974154 710.0961807 64.62963888 710.09516378 62.89953613 710.09460449 C56.57885049 710.08942257 50.25817448 710.07546184 43.9375 710.0625 C29.768125 710.041875 15.59875 710.02125 1 710 C1 671.39 1 632.78 1 593 C38.875 592.6875 38.875 592.6875 50.65576172 592.61206055 C106.22197979 592.11160405 158.43188863 580.55259187 202 544 C202.6089209 543.49259277 203.2178418 542.98518555 203.84521484 542.46240234 C213.31751593 534.54551149 221.88551261 526.58706702 229.625 516.92578125 C231.17292481 515.01888046 232.75520775 513.13921221 234.375 511.29296875 C252.24278145 490.81946917 263.48689245 466.18488735 273 441 C273.27328125 440.29166016 273.5465625 439.58332031 273.828125 438.85351562 C277.07991179 430.35370627 279.15159673 421.60458293 281.1875 412.75 C281.43790039 411.67959473 281.68830078 410.60918945 281.94628906 409.50634766 C285.87902063 391.67601327 286.47382866 373.69910632 286.5 355.5 C286.50267883 354.38970428 286.50535767 353.27940857 286.50811768 352.13546753 C286.49411889 325.20397604 282.97865903 299.49165829 274 274 C273.49550912 272.48587175 272.99161088 270.97154592 272.48828125 269.45703125 C263.71362483 243.77299366 250.76205576 219.54829812 233.38867188 198.66943359 C231.96960175 196.96345583 230.5711549 195.24175881 229.171875 193.51953125 C198.48167901 156.25064815 154.84288987 131.47158492 108 121 C107.16597656 120.80664062 106.33195313 120.61328125 105.47265625 120.4140625 C92.49437428 117.58467401 79.22972817 117.80399407 66.015625 117.68359375 C64.32014542 117.66514695 62.62467006 117.64630813 60.92919922 117.6270752 C54.70284929 117.55915291 48.47641899 117.49876562 42.25 117.4375 C28.3075 117.293125 14.365 117.14875 0 117 C0 78.39 0 39.78 0 0 Z " fill="#147EC6" transform="translate(571,259)"/>
<path d="M0 0 C54.78 0 109.56 0 166 0 C166 234.3 166 468.6 166 710 C111.22 710 56.44 710 0 710 C0 475.7 0 241.4 0 0 Z " fill="#17B3FC" transform="translate(362,259)"/>
<path d="M0 0 C0 0.33 0 0.66 0 1 C-33.22215405 5.81277337 -67.53236462 4.13436168 -101 4 C-102.27743544 8.89354701 -102.12597143 13.71069422 -102.09765625 18.72802734 C-102.09619598 19.70262405 -102.09473572 20.67722076 -102.0932312 21.68135071 C-102.08943077 23.79406619 -102.08332007 25.9067785 -102.07516479 28.01948166 C-102.0623871 31.3655028 -102.0558817 34.71148422 -102.05102539 38.05752563 C-102.03766173 46.36871384 -102.01347241 54.6798643 -101.98962402 62.99102783 C-101.96987866 70.01407281 -101.95424288 77.03710367 -101.94406128 84.06016922 C-101.93759092 87.35218083 -101.92508186 90.64413422 -101.91235352 93.93612671 C-101.90871957 95.96181183 -101.90536802 97.98749748 -101.90234375 100.01318359 C-101.89717743 100.92458603 -101.89201111 101.83598846 -101.88668823 102.77500916 C-101.88628681 107.62781723 -102.1782651 112.21526271 -103 117 C-91.78523197 116.8918818 -80.57052061 116.77913145 -69.3558569 116.66066074 C-64.14700654 116.60577634 -58.93815035 116.55241646 -53.72924805 116.50268555 C-48.69118041 116.45452713 -43.6531714 116.40217493 -38.61517525 116.34705925 C-36.70452927 116.32686603 -34.79386739 116.30811896 -32.88319206 116.29092598 C-18.86691905 116.16344778 -4.91946966 115.798209 9 114 C10.21042969 113.84402344 11.42085937 113.68804688 12.66796875 113.52734375 C33.48559136 110.8059367 54.03798409 106.50740306 73.92382812 99.70727539 C76.94235867 98.67897306 79.97592919 97.69661521 83.00830078 96.70996094 C85.80072374 95.71457408 88.37593131 94.37167227 91 93 C100.41176471 89 100.41176471 89 105 89 C105.33 88.34 105.66 87.68 106 87 C111.03981465 83.60360317 115.83620327 82.07880851 121.7421875 80.7109375 C122.48726562 80.47632813 123.23234375 80.24171875 124 80 C124.33 79.34 124.66 78.68 125 78 C126.7421875 76.74609375 126.7421875 76.74609375 128.875 75.4375 C129.92300781 74.78587891 129.92300781 74.78587891 130.9921875 74.12109375 C133 73 133 73 136 72 C135.9453125 73.7421875 135.9453125 73.7421875 135 76 C132.63269467 77.58025317 130.40571593 78.85921334 127.875 80.125 C127.12871338 80.50825439 126.38242676 80.89150879 125.61352539 81.28637695 C111.18717844 88.56195447 96.20397417 94.86769876 80.98339844 100.2824707 C79.51211014 100.81473514 78.04755652 101.36569436 76.58691406 101.92651367 C69.26174198 104.69980514 61.8556681 106.71124274 54.25 108.5625 C53.00573242 108.86768555 51.76146484 109.17287109 50.47949219 109.48730469 C46.98895639 110.33640334 43.49578681 111.17281428 40 112 C39.22011719 112.18481934 38.44023438 112.36963867 37.63671875 112.56005859 C29.54376687 114.43530421 21.35572032 115.55857823 13.125 116.625 C12.18043945 116.74842773 11.23587891 116.87185547 10.26269531 116.99902344 C-5.43990203 118.92124712 -21.11631993 119.14341249 -36.91015625 119.09765625 C-38.64025846 119.0961807 -40.37036112 119.09516378 -42.10046387 119.09460449 C-48.42114951 119.08942257 -54.74182552 119.07546184 -61.0625 119.0625 C-75.231875 119.041875 -89.40125 119.02125 -104 119 C-104 80.39 -104 41.78 -104 2 C-65.5 1.625 -65.5 1.625 -53.44335938 1.52197266 C-49.80717606 1.48196472 -49.80717606 1.48196472 -46.17102051 1.43954468 C-44.57925679 1.42211585 -42.98745174 1.40820227 -41.39562988 1.39730835 C-31.58734594 1.32722151 -22.08329757 0.83149346 -12.37463379 -0.61367798 C-8.01825102 -1.11238886 -4.30070443 -0.76798293 0 0 Z " fill="#0E4E89" transform="translate(676,850)"/>
<path d="M0 0 C15.076875 -0.061875 30.15375 -0.12375 45.6875 -0.1875 C50.38315186 -0.21481201 55.07880371 -0.24212402 59.91674805 -0.27026367 C86.48876317 -0.36166574 112.98797592 -0.41579201 138.9375 6.125 C141.13386881 6.6494678 143.33047495 7.17294297 145.52734375 7.6953125 C146.90007446 8.0358667 146.90007446 8.0358667 148.30053711 8.38330078 C151.18640828 9.04258545 154.07636892 9.53971676 157 10 C157 10.99 157 11.98 157 13 C153.06814414 13.22467748 150.61492257 12.45011412 147 11 C143.40477612 10.13717463 139.76437324 9.52402957 136.125 8.875 C134.67287109 8.60236328 134.67287109 8.60236328 133.19140625 8.32421875 C128.04342211 7.39267876 123.23073511 6.78144561 118 7 C118 6.67 118 6.34 118 6 C110.28088069 4.73789582 102.84288025 3.76439964 95.01171875 4.02734375 C93 4 93 4 92 3 C89.26194796 2.87483363 86.54788281 2.81392327 83.80834961 2.79467773 C82.52065926 2.77982834 82.52065926 2.77982834 81.20695496 2.76467896 C78.35544641 2.73296691 75.50392118 2.70826836 72.65234375 2.68359375 C70.68078669 2.66303259 68.70923412 2.64203635 66.73768616 2.62062073 C61.53778715 2.56531347 56.3378478 2.5159425 51.13787842 2.46777344 C45.83602286 2.41762143 40.5342262 2.36190256 35.23242188 2.30664062 C24.82166485 2.19895327 14.41085677 2.09753195 4 2 C3.05430011 4.83709967 2.87636516 6.56132486 2.87974548 9.49882507 C2.87837082 10.42009186 2.87699615 11.34135864 2.87557983 12.2905426 C2.87917511 13.29898727 2.88277039 14.30743195 2.88647461 15.34643555 C2.88632858 16.41001282 2.88618256 17.47359009 2.8860321 18.56939697 C2.88672988 22.09185817 2.89451599 25.61426677 2.90234375 29.13671875 C2.90420841 31.5762377 2.90563209 34.01575703 2.90663147 36.45527649 C2.91045287 42.88161245 2.92027996 49.30792588 2.93133545 55.73425293 C2.94155767 62.28962906 2.94613083 68.84500883 2.95117188 75.40039062 C2.96190254 88.26693671 2.97878272 101.13346716 3 114 C3.57563124 113.92931368 4.15126247 113.85862736 4.74433708 113.78579903 C9.30920905 113.24787924 13.7807241 112.87420098 18.38330078 112.87060547 C19.5554715 112.86745331 20.72764221 112.86430115 21.93533325 112.86105347 C23.1761264 112.8630777 24.41691956 112.86510193 25.6953125 112.8671875 C27.00096161 112.86623077 28.30661072 112.86527405 29.65182495 112.86428833 C32.40689284 112.8628217 35.16192812 112.86493033 37.91699219 112.86962891 C41.40272218 112.87529166 44.88837456 112.87206257 48.37410164 112.86605644 C51.75201098 112.86151328 55.12990097 112.86472314 58.5078125 112.8671875 C60.35078415 112.86415115 60.35078415 112.86415115 62.23098755 112.86105347 C70.8624858 112.88389642 79.39762296 113.33558299 88 114 C88 114.33 88 114.66 88 115 C58.96 115 29.92 115 0 115 C0 77.05 0 39.1 0 0 Z " fill="#16C1FD" transform="translate(572,260)"/>
<path d="M0 0 C28.62798647 4.11369894 59.05724876 24.2168999 82 41 C82.55220215 41.40202637 83.1044043 41.80405273 83.67333984 42.21826172 C93.2894408 49.24842296 102.59408105 56.58524027 111.3828125 64.62890625 C113.46952541 66.51940586 115.58152111 68.3624638 117.71484375 70.19921875 C129.42094843 80.42424909 140.56113866 91.64276281 150 104 C151.04730644 105.3103333 152.09699803 106.61876206 153.1484375 107.92578125 C206.50329353 174.6923632 206.50329353 174.6923632 205 201 C202.16385601 199.581928 202.01672482 197.93814498 200.875 195 C198.77394453 189.79679792 196.52075591 184.69920871 194.125 179.625 C193.78710449 178.90884521 193.44920898 178.19269043 193.10107422 177.45483398 C190.25709229 171.46846084 187.28130109 165.55360101 184.25 159.66015625 C183 157 183 157 183 155 C182.01 154.67 181.02 154.34 180 154 C178.39453125 151.34765625 178.39453125 151.34765625 176.8125 148.0625 C176.28269531 146.98097656 175.75289062 145.89945313 175.20703125 144.78515625 C174 142 174 142 174 140 C173.34 140 172.68 140 172 140 C172 139.01 172 138.02 172 137 C171.34 137 170.68 137 170 137 C170 136.01 170 135.02 170 134 C169.34 134 168.68 134 168 134 C165.80808632 131.80808632 165.72130648 130.88522592 165 128 C164.34 127.34 163.68 126.68 163 126 C162.375 123.875 162.375 123.875 162 122 C161.34 122 160.68 122 160 122 C159 120.33333333 158 118.66666667 157 117 C155.3540349 115.31288577 153.68762851 113.6454378 152 112 C149 108.37931034 149 108.37931034 149 106 C148.34 106 147.68 106 147 106 C145.63636792 104.02053408 144.30581356 102.0180755 143 100 C142.4225 99.4225 141.845 98.845 141.25 98.25 C140.8375 97.8375 140.425 97.425 140 97 C140 96.34 140 95.68 140 95 C139.34 95 138.68 95 138 95 C137.54625 94.21625 137.0925 93.4325 136.625 92.625 C135.27632264 89.93304127 135.27632264 89.93304127 133.125 89.0625 C129.92760311 87.46380156 128.23921139 84.74303395 126 82 C125.236875 81.443125 124.47375 80.88625 123.6875 80.3125 C122.8521875 79.6628125 122.8521875 79.6628125 122 79 C122 78.01 122 77.02 122 76 C120.515 75.505 120.515 75.505 119 75 C119 74.34 119 73.68 119 73 C118.42121094 72.72800781 117.84242188 72.45601563 117.24609375 72.17578125 C111.39395815 69.11231548 106.57604332 64.70678741 102 60 C100.515 59.01 100.515 59.01 99 58 C99 57.34 99 56.68 99 56 C98.34 56 97.68 56 97 56 C97 55.34 97 54.68 97 54 C96.43152344 53.90460938 95.86304688 53.80921875 95.27734375 53.7109375 C92.48286407 52.83856134 90.82013434 51.47962509 88.5625 49.625 C86.05290433 47.59993023 83.71997848 45.83427298 80.9375 44.1875 C80.298125 43.795625 79.65875 43.40375 79 43 C79 42.34 79 41.68 79 41 C78.01 41 77.02 41 76 41 C76 40.34 76 39.68 76 39 C74.02 38.505 74.02 38.505 72 38 C72 37.34 72 36.68 72 36 C70.35 35.67 68.7 35.34 67 35 C67 34.34 67 33.68 67 33 C66.01 33 65.02 33 64 33 C64 32.34 64 31.68 64 31 C63.484375 30.896875 62.96875 30.79375 62.4375 30.6875 C59.13973565 29.75736134 56.13366668 28.38604488 53 27 C53 26.34 53 25.68 53 25 C52.26652344 24.88914062 51.53304687 24.77828125 50.77734375 24.6640625 C47.86535054 23.96780533 46.0627802 22.99563223 43.5625 21.375 C34.7489265 15.91897831 25.62753135 11.39498833 15.8203125 8.04296875 C10.40033251 6.03862712 5.21246386 3.48607179 0 1 C0 0.67 0 0.34 0 0 Z " fill="#17BBE8" transform="translate(756,280)"/>
<path d="M0 0 C0 0.33 0 0.66 0 1 C-33.22215405 5.81277337 -67.53236462 4.13436168 -101 4 C-101.77070188 7.41029867 -102.11906077 10.53929092 -102.09765625 14.03271484 C-102.09439331 15.01437622 -102.09113037 15.9960376 -102.08776855 17.00744629 C-102.07942993 18.06459839 -102.07109131 19.12175049 -102.0625 20.2109375 C-102.0539428 22.49853481 -102.04548301 24.78613248 -102.03710938 27.07373047 C-102.03090576 28.2678656 -102.02470215 29.46200073 -102.01831055 30.69232178 C-101.91326971 51.81848548 -102.02580452 72.89415859 -103 94 C-103.33 94 -103.66 94 -104 94 C-104 63.64 -104 33.28 -104 2 C-65.5 1.625 -65.5 1.625 -53.44335938 1.52197266 C-49.80717606 1.48196472 -49.80717606 1.48196472 -46.17102051 1.43954468 C-44.57925679 1.42211585 -42.98745174 1.40820227 -41.39562988 1.39730835 C-31.58734594 1.32722151 -22.08329757 0.83149346 -12.37463379 -0.61367798 C-8.01825102 -1.11238886 -4.30070443 -0.76798293 0 0 Z " fill="#105DA1" transform="translate(676,850)"/>
<path d="M0 0 C11.75518793 -0.07034514 23.51032361 -0.12323107 35.26568127 -0.15543652 C40.72757226 -0.17091437 46.18931649 -0.19181358 51.65112305 -0.22631836 C111.28659764 -0.5925802 111.28659764 -0.5925802 137.9375 6.125 C140.13386881 6.6494678 142.33047495 7.17294297 144.52734375 7.6953125 C145.90007446 8.0358667 145.90007446 8.0358667 147.30053711 8.38330078 C150.18640828 9.04258545 153.07636892 9.53971676 156 10 C156 10.99 156 11.98 156 13 C152.06814414 13.22467748 149.61492257 12.45011412 146 11 C142.40477612 10.13717463 138.76437324 9.52402957 135.125 8.875 C133.67287109 8.60236328 133.67287109 8.60236328 132.19140625 8.32421875 C127.04342211 7.39267876 122.23073511 6.78144561 117 7 C117 6.67 117 6.34 117 6 C109.28088069 4.73789582 101.84288025 3.76439964 94.01171875 4.02734375 C92 4 92 4 91 3 C85.20537768 1.98540415 79.3193206 1.8406679 73.45092773 1.79467773 C72.64982071 1.78477814 71.84871368 1.77487854 71.02333069 1.76467896 C68.41011374 1.73342413 65.79687869 1.70845113 63.18359375 1.68359375 C61.35799218 1.662993 59.53239504 1.64199577 57.70680237 1.62062073 C52.92788306 1.56572211 48.14892304 1.51617231 43.36993408 1.46777344 C38.48291447 1.41732153 33.59595318 1.36175977 28.70898438 1.30664062 C19.13937286 1.19945371 9.56971048 1.09792297 0 1 C0 0.67 0 0.34 0 0 Z " fill="#1DC3ED" transform="translate(573,260)"/>
<path d="M0 0 C10.99508689 1.84988429 21.77197994 13.27985794 29.9375 20.4375 C32.77283744 23.12775961 32.77283744 23.12775961 36 24 C37.6484375 25.70703125 37.6484375 25.70703125 39.375 27.8125 C41.37103751 30.17677923 43.11366616 32.08871505 45.5625 34 C48.44739733 36.36709525 50.3398928 39.01916433 52.5078125 42.03515625 C53.86322426 43.8199 55.25532277 45.33310388 56.875 46.875 C57.57625 47.57625 58.2775 48.2775 59 49 C59 49.66 59 50.32 59 51 C59.99 51.33 60.98 51.66 62 52 C62.33333333 53.33333333 62.66666667 54.66666667 63 56 C63.99 56.33 64.98 56.66 66 57 C67.40568804 58.94982535 68.7295036 60.95950578 70 63 C70.7425 64.051875 71.485 65.10375 72.25 66.1875 C74 69 74 69 74 72 C74.66 72 75.32 72 76 72 C77.17333984 73.60131836 77.17333984 73.60131836 78.4609375 75.83984375 C78.93273437 76.65646484 79.40453125 77.47308594 79.890625 78.31445312 C80.38046875 79.18005859 80.8703125 80.04566406 81.375 80.9375 C81.85710937 81.76830078 82.33921875 82.59910156 82.8359375 83.45507812 C89.51804203 95.12152422 89.51804203 95.12152422 91 100 C90.505 101.485 90.505 101.485 90 103 C89.68885254 102.41734375 89.37770508 101.8346875 89.05712891 101.234375 C79.5327329 83.4508422 69.87632295 66.56663372 57 51 C56.53368164 50.42540039 56.06736328 49.85080078 55.58691406 49.25878906 C41.41956975 31.82430151 24.60836469 17.26986007 5.70898438 5.17089844 C1.09963949 2.19927899 1.09963949 2.19927899 0 0 Z " fill="#1BAEEA" transform="translate(746,405)"/>
<path d="M0 0 C24.68475973 -0.64297789 64.22863855 10.17335128 82.30688477 27.16870117 C83.14497681 28.07519409 83.14497681 28.07519409 84 29 C79.37692164 28.38773051 75.63766112 26.44872475 71.5625 24.3125 C50.9296482 13.79729677 29.71135102 7.26678956 7.03125 2.74609375 C4.39421167 2.0970289 2.34400526 1.33861084 0 0 Z " fill="#1BACE0" transform="translate(661,375)"/>
<path d="M0 0 C3.98247801 4.53795367 6.70894078 9.59336347 9.5625 14.875 C10.08118652 15.83011475 10.59987305 16.78522949 11.13427734 17.76928711 C29.46356945 51.88753471 29.46356945 51.88753471 29 60 C26.16385601 58.581928 26.01672482 56.93814498 24.875 54 C22.77394453 48.79679792 20.52075591 43.69920871 18.125 38.625 C17.78710449 37.90884521 17.44920898 37.19269043 17.10107422 36.45483398 C14.25709229 30.46846084 11.28130109 24.55360101 8.25 18.66015625 C7 16 7 16 7 14 C6.01 13.67 5.02 13.34 4 13 C2.578125 11.07421875 2.578125 11.07421875 1.25 8.6875 C0.80140625 7.90761719 0.3528125 7.12773437 -0.109375 6.32421875 C-1.11611108 3.69699083 -0.97226335 2.59072612 0 0 Z " fill="#16A5DD" transform="translate(932,421)"/>
<path d="M0 0 C4.16444361 1.57388596 6.5914256 4.61933491 9.375 7.9375 C10.15012939 8.85317749 10.15012939 8.85317749 10.94091797 9.78735352 C17.69684626 17.88620641 23.89716489 26.40357198 30 35 C30.53061035 35.74652832 31.0612207 36.49305664 31.60791016 37.26220703 C33.06678799 39.33115262 34.50668901 41.41157321 35.9375 43.5 C36.36885254 44.11673584 36.80020508 44.73347168 37.24462891 45.36889648 C38.40234375 47.09375 38.40234375 47.09375 40 50 C39.67 50.99 39.34 51.98 39 53 C38.67 52.01 38.34 51.02 38 50 C37.34 50 36.68 50 36 50 C36 49.01 36 48.02 36 47 C35.34 47 34.68 47 34 47 C34 46.01 34 45.02 34 44 C33.34 44 32.68 44 32 44 C29.80808632 41.80808632 29.72130648 40.88522592 29 38 C28.34 37.34 27.68 36.68 27 36 C26.375 33.875 26.375 33.875 26 32 C25.34 32 24.68 32 24 32 C22.5 29.5 22.5 29.5 21 27 C19.3540349 25.31288577 17.68762851 23.6454378 16 22 C13 18.37931034 13 18.37931034 13 16 C12.34 16 11.68 16 11 16 C9.63636792 14.02053408 8.30581356 12.0180755 7 10 C6.4225 9.4225 5.845 8.845 5.25 8.25 C4.8375 7.8375 4.425 7.425 4 7 C4 6.34 4 5.68 4 5 C3.34 5 2.68 5 2 5 C1.34 3.35 0.68 1.7 0 0 Z " fill="#14B4E8" transform="translate(892,370)"/>
<path d="M0 0 C0.99 0 1.98 0 3 0 C2.67 0.99 2.34 1.98 2 3 C1.90025663 4.43383808 1.85391764 5.87175381 1.84178162 7.30900574 C1.8319928 8.18820175 1.82220398 9.06739777 1.81211853 9.97323608 C1.80636307 10.93492706 1.8006076 11.89661804 1.79467773 12.88745117 C1.78477814 13.90226059 1.77487854 14.91707001 1.76467896 15.96263123 C1.73304791 19.32271986 1.70830009 22.68282264 1.68359375 26.04296875 C1.66302562 28.37039053 1.64202918 30.69780857 1.62062073 33.02522278 C1.56538558 39.15559863 1.51598262 45.28600828 1.46777344 51.41644287 C1.41756899 57.67023735 1.3618774 63.92398267 1.30664062 70.17773438 C1.19904138 82.45178093 1.09760029 94.72587015 1 107 C0.67 107 0.34 107 0 107 C0 71.69 0 36.38 0 0 Z " fill="#18BAF8" transform="translate(573,262)"/>
<path d="M0 0 C1.485 0.495 1.485 0.495 3 1 C-6.19854507 12.92403991 -16.63502159 24.29871889 -29 33 C-29.66 32.34 -30.32 31.68 -31 31 C-30.07058594 30.21496094 -29.14117188 29.42992187 -28.18359375 28.62109375 C-18.83898979 20.69643502 -10.51959407 12.83624076 -2.8203125 3.2578125 C-1 1 -1 1 0 0 Z " fill="#1465A7" transform="translate(804,772)"/>
<path d="M0 0 C2.79551999 2.06625391 3.01067926 3.06882192 3.5625 6.625 C3.706875 7.73875 3.85125 8.8525 4 10 C4.66 10.33 5.32 10.66 6 11 C6.57836914 12.81005859 6.57836914 12.81005859 7.03515625 15.1484375 C7.20466797 15.98890625 7.37417969 16.829375 7.54882812 17.6953125 C7.71833984 18.57960938 7.88785156 19.46390625 8.0625 20.375 C8.40612039 22.11226296 8.75111631 23.84925456 9.09765625 25.5859375 C9.24726807 26.3598584 9.39687988 27.1337793 9.55102539 27.93115234 C10.00020009 30.18032935 10.00020009 30.18032935 11 33 C10.72428861 35.00875442 10.39764263 37.01178687 10 39 C9.34 38.67 8.68 38.34 8 38 C7.36157227 35.75024414 7.36157227 35.75024414 6.81640625 32.78515625 C6.61080078 31.70556641 6.40519531 30.62597656 6.19335938 29.51367188 C5.98517578 28.37478516 5.77699219 27.23589844 5.5625 26.0625 C4.23885769 18.90982091 2.84372675 11.93874091 0.56616211 5.02124023 C0 3 0 3 0 0 Z " fill="#1B9DE7" transform="translate(846,532)"/>
<path d="M0 0 C4.2154602 3.47317264 5.55166739 7.29981931 7.25 12.3125 C7.518125 13.04662109 7.78625 13.78074219 8.0625 14.53710938 C9.69181925 19.22140222 10.28795707 23.0458295 10 28 C7.67730104 25.67730104 7.12873616 23.96859511 6.0546875 20.87890625 C5.70019531 19.86119141 5.34570312 18.84347656 4.98046875 17.79492188 C4.61566406 16.72822266 4.25085938 15.66152344 3.875 14.5625 C3.50246094 13.49966797 3.12992188 12.43683594 2.74609375 11.34179688 C0 3.39019574 0 3.39019574 0 0 Z " fill="#1D9FDD" transform="translate(961,482)"/>
<path d="M0 0 C0.99 0.66 1.98 1.32 3 2 C-7.25390625 9.32421875 -7.25390625 9.32421875 -9.12158203 10.64990234 C-10.39881623 11.56790405 -11.6651667 12.50119931 -12.92138672 13.44775391 C-17.68402778 17 -17.68402778 17 -21 17 C-19.72690747 13.18072242 -18.41008688 12.7771072 -15 10.75 C-9.6970638 7.49891885 -4.82422278 3.91893653 0 0 Z " fill="#1862A5" transform="translate(769,806)"/>
<path d="M0 0 C0.99 0 1.98 0 3 0 C1.36047417 4.6393176 -1.06871052 8.63855858 -3.625 12.8125 C-4.04523437 13.50537109 -4.46546875 14.19824219 -4.8984375 14.91210938 C-5.9289467 16.61010748 -6.96401681 18.30533614 -8 20 C-8.66 19.67 -9.32 19.34 -10 19 C-8.23327263 14.02104104 -5.60483084 9.57292526 -3 5 C-2.46375 3.989375 -1.9275 2.97875 -1.375 1.9375 C-0.92125 1.298125 -0.4675 0.65875 0 0 Z " fill="#1663A5" transform="translate(939,793)"/>
<path d="M0 0 C0 0.99 0 1.98 0 3 C-2.51712189 4.29935464 -5.03829087 5.58954372 -7.5625 6.875 C-8.26697266 7.23980469 -8.97144531 7.60460937 -9.69726562 7.98046875 C-14.07465515 10.19942197 -18.23641861 11.81066956 -23 13 C-23.33 12.34 -23.66 11.68 -24 11 C-23.41508789 10.73783691 -22.83017578 10.47567383 -22.22753906 10.20556641 C-19.5679636 9.01292458 -16.90897683 7.81897582 -14.25 6.625 C-12.86941406 6.00625 -12.86941406 6.00625 -11.4609375 5.375 C-10.57148437 4.97539063 -9.68203125 4.57578125 -8.765625 4.1640625 C-7.94868164 3.79748535 -7.13173828 3.4309082 -6.29003906 3.05322266 C-4.16949975 2.07795543 -2.08075174 1.05708873 0 0 Z " fill="#1364A7" transform="translate(739,826)"/>
<path d="M0 0 C0.99 0 1.98 0 3 0 C1.61462414 4.00538721 -0.25416695 6.85703014 -2.9375 10.125 C-3.97197266 11.39730469 -3.97197266 11.39730469 -5.02734375 12.6953125 C-6.62085917 14.55704338 -8.23325954 16.30525837 -10 18 C-10.33 17.01 -10.66 16.02 -11 15 C-9.453125 12.6953125 -9.453125 12.6953125 -7.25 10.125 C-5.03957079 7.52496276 -3.09076649 5.16221139 -1.421875 2.1796875 C-0.95265625 1.46039062 -0.4834375 0.74109375 0 0 Z " fill="#186AAC" transform="translate(818,753)"/>
<path d="M0 0 C5.73138244 -0.15490223 10.89349206 0.34755115 16.5 1.5 C17.22703125 1.64308594 17.9540625 1.78617187 18.703125 1.93359375 C20.47009071 2.28233698 22.23525309 2.64019723 24 3 C22 5 22 5 19.78515625 5.08203125 C12.94198413 4.40458666 6.57127755 3.02095383 0 1 C0 0.67 0 0.34 0 0 Z " fill="#17AEE4" transform="translate(661,375)"/>
<path d="M0 0 C0 0.33 0 0.66 0 1 C-3.6024096 1.39337938 -7.20695977 1.76152924 -10.8125 2.125 C-11.83666016 2.23714844 -12.86082031 2.34929688 -13.91601562 2.46484375 C-15.39038086 2.60986328 -15.39038086 2.60986328 -16.89453125 2.7578125 C-17.80050049 2.8520752 -18.70646973 2.94633789 -19.63989258 3.04345703 C-22 3 -22 3 -25 1 C-8.29157175 -1.48063781 -8.29157175 -1.48063781 0 0 Z " fill="#105792" transform="translate(676,850)"/>
<path d="M0 0 C0.99 0.495 0.99 0.495 2 1 C3.01161932 5.99447277 3.10747808 10.85497674 3.0625 15.9375 C3.05573242 16.96327148 3.05573242 16.96327148 3.04882812 18.00976562 C3.0371956 19.67321604 3.01926694 21.3366205 3 23 C2.67 23 2.34 23 2 23 C0.64290496 15.26940505 -0.31918373 7.85546636 0 0 Z " fill="#1D99E4" transform="translate(856,572)"/>
<path d="M0 0 C3 1 3 1 3.94921875 2.78515625 C5.6656066 8.07962247 6.30346881 12.43640508 6 18 C5.34 17.67 4.68 17.34 4 17 C3.3671875 15.07421875 3.3671875 15.07421875 2.875 12.6875 C2.70742188 11.90761719 2.53984375 11.12773438 2.3671875 10.32421875 C2 8 2 8 2 4 C1.34 4 0.68 4 0 4 C0 2.68 0 1.36 0 0 Z " fill="#1A9CE2" transform="translate(972,518)"/>
<path d="M0 0 C4.54295147 3.56946187 6.4309029 8.5832765 8 14 C8.109375 16.81640625 8.109375 16.81640625 8 19 C4.73547539 17.36773769 4.13745308 13.87475961 2.875 10.625 C2.59785156 9.93921875 2.32070313 9.2534375 2.03515625 8.546875 C0.85492567 5.55850791 0 3.24102363 0 0 Z " fill="#1BA4EA" transform="translate(837,509)"/>
<path d="M0 0 C0.33 0 0.66 0 1 0 C1.53518883 2.0379507 2.05254093 4.08059009 2.5625 6.125 C2.85253906 7.26195312 3.14257812 8.39890625 3.44140625 9.5703125 C4.01056927 13.06489384 3.78666101 15.57203347 3 19 C2.34 18.67 1.68 18.34 1 18 C0.33203125 14.98046875 0.33203125 14.98046875 -0.1875 11.1875 C-0.36667969 9.94355469 -0.54585937 8.69960938 -0.73046875 7.41796875 C-0.95947791 4.51386713 -0.95870192 2.69932383 0 0 Z " fill="#1A8ED6" transform="translate(853,552)"/>
<path d="M0 0 C6.28260706 -0.23268915 11.88019467 0.59545452 18 2 C18 2.99 18 3.98 18 5 C14.06916882 5.22461892 11.60095719 4.50737743 8 3 C5.34621287 2.26723788 2.67950832 1.63581553 0 1 C0 0.67 0 0.34 0 0 Z " fill="#1BBFED" transform="translate(711,268)"/>
<path d="M0 0 C0 6.21133555 -3.72267786 10.95892817 -7 16 C-7.99 15.34 -8.98 14.68 -10 14 C-8.8966898 12.41606974 -7.79231456 10.83288132 -6.6875 9.25 C-5.76517578 7.92742188 -5.76517578 7.92742188 -4.82421875 6.578125 C-3.25166935 4.35567831 -1.64631488 2.16807006 0 0 Z " fill="#13599A" transform="translate(925,816)"/>
<path d="M0 0 C0.66 0.66 1.32 1.32 2 2 C-1.63 5.63 -5.26 9.26 -9 13 C-9.33 12.01 -9.66 11.02 -10 10 C-6.7 6.7 -3.4 3.4 0 0 Z " fill="#115895" transform="translate(887,864)"/>
<path d="M0 0 C3.45201639 1.47721422 5.64961936 3.43794001 8.25 6.125 C8.95640625 6.84945313 9.6628125 7.57390625 10.390625 8.3203125 C11.18726563 9.15175781 11.18726563 9.15175781 12 10 C11.34 10.66 10.68 11.32 10 12 C8.32737283 10.38113585 6.66204463 8.7547271 5 7.125 C4.071875 6.22007812 3.14375 5.31515625 2.1875 4.3828125 C0 2 0 2 0 0 Z " fill="#021827" transform="translate(878,353)"/>
<path d="M0 0 C-2.05762909 0.70194375 -4.12136031 1.38601697 -6.1875 2.0625 C-7.91033203 2.63677734 -7.91033203 2.63677734 -9.66796875 3.22265625 C-12.97454508 3.99406151 -14.79082314 3.96093996 -18 3 C-15.06849882 1.45281882 -12.1540611 0.26930023 -9 -0.75 C-8.154375 -1.03359375 -7.30875 -1.3171875 -6.4375 -1.609375 C-3.55671122 -2.07103987 -2.4179341 -1.54479123 0 0 Z " fill="#135B99" transform="translate(707,843)"/>
<path d="M0 0 C0.99 0.66 1.98 1.32 3 2 C-0.3 4.64 -3.6 7.28 -7 10 C-7.66 9.34 -8.32 8.68 -9 8 C-6.03 5.36 -3.06 2.72 0 0 Z " fill="#1360A1" transform="translate(782,795)"/>
<path d="M0 0 C4.13621084 3.3810038 7.81316569 6.66590534 11 11 C8 11 8 11 6.39453125 9.7578125 C5.87246094 9.21898437 5.35039063 8.68015625 4.8125 8.125 C4.28269531 7.59132813 3.75289062 7.05765625 3.20703125 6.5078125 C2 5 2 5 2 3 C1.34 3 0.68 3 0 3 C0 2.01 0 1.02 0 0 Z " fill="#042036" transform="translate(784,435)"/>
<path d="M0 0 C4.06225548 0.57823096 6.84762346 1.89117737 10.3125 4.0625 C11.19550781 4.61035156 12.07851563 5.15820312 12.98828125 5.72265625 C13.65214844 6.14417969 14.31601562 6.56570313 15 7 C12 8 12 8 9.08203125 6.6015625 C8.00308594 5.94929688 6.92414062 5.29703125 5.8125 4.625 C4.72582031 3.97789062 3.63914062 3.33078125 2.51953125 2.6640625 C1.68808594 2.11492187 0.85664062 1.56578125 0 1 C0 0.67 0 0.34 0 0 Z " fill="#1BB5ED" transform="translate(730,396)"/>
<path d="M0 0 C0.66 0.66 1.32 1.32 2 2 C-0.64 4.97 -3.28 7.94 -6 11 C-6.66 10.34 -7.32 9.68 -8 9 C-6.85459775 7.68712379 -5.70866567 6.37470979 -4.5625 5.0625 C-3.92441406 4.33160156 -3.28632812 3.60070312 -2.62890625 2.84765625 C-1.77458541 1.87860647 -0.91348825 0.91348825 0 0 Z " fill="#105A99" transform="translate(897,853)"/>
<path d="M0 0 C0.66 0.66 1.32 1.32 2 2 C0.88200014 3.33920838 -0.24461897 4.67122556 -1.375 6 C-2.00148438 6.7425 -2.62796875 7.485 -3.2734375 8.25 C-3.84320312 8.8275 -4.41296875 9.405 -5 10 C-5.66 10 -6.32 10 -7 10 C-5.33248852 6.05860922 -2.77289351 3.2107188 0 0 Z " fill="#125C9A" transform="translate(907,841)"/>
<path d="M0 0 C0.33 0 0.66 0 1 0 C1.22197585 2.10277123 1.42713637 4.20732302 1.625 6.3125 C1.74101563 7.48425781 1.85703125 8.65601563 1.9765625 9.86328125 C2 13 2 13 0 16 C-0.33 15.67 -0.66 15.34 -1 15 C-0.90913549 12.46458702 -0.7629055 9.96445216 -0.5625 7.4375 C-0.51029297 6.72658203 -0.45808594 6.01566406 -0.40429688 5.28320312 C-0.27425893 3.52178001 -0.13773103 1.76083827 0 0 Z " fill="#1E76B7" transform="translate(857,639)"/>
<path d="M0 0 C0.33 0.99 0.66 1.98 1 3 C-3.455 5.97 -3.455 5.97 -8 9 C-8.33 8.01 -8.66 7.02 -9 6 C-5.93882432 3.37613513 -5.26826873 3 -1 3 C-0.67 2.01 -0.34 1.02 0 0 Z " fill="#0D5494" transform="translate(832,909)"/>
<path d="M0 0 C1.33333333 0.66666667 2.66666667 1.33333333 4 2 C4.680625 2.268125 5.36125 2.53625 6.0625 2.8125 C8.64688835 4.39647996 9.60781819 6.35485455 11 9 C7.25983417 9 6.54723807 8.0658409 3.8125 5.625 C3.09707031 4.99851562 2.38164063 4.37203125 1.64453125 3.7265625 C0 2 0 2 0 0 Z " fill="#16ABE3" transform="translate(774,425)"/>
<path d="M0 0 C0.33 0.99 0.66 1.98 1 3 C-1.64 4.65 -4.28 6.3 -7 8 C-7.33 7.01 -7.66 6.02 -8 5 C-4.04 2.525 -4.04 2.525 0 0 Z " fill="#105596" transform="translate(821,916)"/>
<path d="M0 0 C1.44977894 2.34112451 2.04314411 3.5796929 1.7578125 6.359375 C1.54898438 7.14828125 1.34015625 7.9371875 1.125 8.75 C0.92132812 9.54921875 0.71765625 10.3484375 0.5078125 11.171875 C0.34023438 11.77515625 0.17265625 12.3784375 0 13 C-2.19576787 9.7063482 -2.36287182 8.81015416 -2 5 C-1 2.1875 -1 2.1875 0 0 Z " fill="#1B71B8" transform="translate(975,703)"/>
<path d="M0 0 C1.37562854 1.28965176 2.70766393 2.62689293 4 4 C4 4.66 4 5.32 4 6 C4.99 6.33 5.98 6.66 7 7 C7.33 7.99 7.66 8.98 8 10 C7.01 10 6.02 10 5 10 C3.61328125 8.57421875 3.61328125 8.57421875 2.3125 6.6875 C1.87550781 6.07261719 1.43851563 5.45773437 0.98828125 4.82421875 C0 3 0 3 0 0 Z " fill="#16A8E7" transform="translate(801,450)"/>
<path d="M0 0 C0.99 0.33 1.98 0.66 3 1 C0.42215154 3.64752004 -1.91648098 5.94432065 -5 8 C-5 5 -5 5 -2.5 2.3125 C-1.675 1.549375 -0.85 0.78625 0 0 Z " fill="#105694" transform="translate(874,876)"/>
<path d="M0 0 C0.33 0 0.66 0 1 0 C1.95261487 4.76307437 2.08333357 9.1666528 2 14 C1.01 13.67 0.02 13.34 -1 13 C-0.67 8.71 -0.34 4.42 0 0 Z " fill="#1971AD" transform="translate(985,574)"/>
<path d="M0 0 C3.7952131 1.49097658 5.61042731 3.75700849 8 7 C5.6875 6.8125 5.6875 6.8125 3 6 C0 1.86206897 0 1.86206897 0 0 Z " fill="#15C3F5" transform="translate(877,355)"/>
<path d="M0 0 C8.57142857 -0.28571429 8.57142857 -0.28571429 12 2 C7.31034294 3.11658501 4.46236469 2.80619523 0 1 C0 0.67 0 0.34 0 0 Z " fill="#1BB8ED" transform="translate(673,377)"/>
<path d="M0 0 C0.33 0.99 0.66 1.98 1 3 C-2.26545761 4.88391785 -5.28111761 5.49287967 -9 6 C-6.45543849 3.03134491 -3.51005335 1.6380249 0 0 Z " fill="#0D4C8A" transform="translate(811,922)"/>
<path d="M0 0 C0.66 0.66 1.32 1.32 2 2 C0.35 4.31 -1.3 6.62 -3 9 C-3.66 8.67 -4.32 8.34 -5 8 C-5 7.34 -5 6.68 -5 6 C-4.34 6 -3.68 6 -3 6 C-2.690625 5.195625 -2.38125 4.39125 -2.0625 3.5625 C-1 1 -1 1 0 0 Z " fill="#115C9D" transform="translate(914,832)"/>
<path d="M0 0 C-2.91708924 1.98362069 -4.12380904 1.9876191 -7.75 1.625 C-8.8225 1.41875 -9.895 1.2125 -11 1 C-11 0.67 -11 0.34 -11 0 C-6.98195309 -0.84098656 -3.98196457 -1.05404945 0 0 Z " fill="#021429" transform="translate(681,847)"/>
<path d="M0 0 C-2.6855594 2.6855594 -5.37621328 3.06049974 -9 4 C-9.33 3.34 -9.66 2.68 -10 2 C-3.375 -1.125 -3.375 -1.125 0 0 Z " fill="#125B9A" transform="translate(725,835)"/>
<path d="M0 0 C4.75 0.875 4.75 0.875 7 2 C7 2.99 7 3.98 7 5 C2.25 3.125 2.25 3.125 0 2 C0 1.34 0 0.68 0 0 Z " fill="#17C0EF" transform="translate(801,300)"/>
<path d="M0 0 C2.31 0.33 4.62 0.66 7 1 C7.33 1.99 7.66 2.98 8 4 C5.125 3.6875 5.125 3.6875 2 3 C1.34 2.01 0.68 1.02 0 0 Z " fill="#17C6F4" transform="translate(747,277)"/>
<path d="M0 0 C0.66 0.33 1.32 0.66 2 1 C1.34 2.98 0.68 4.96 0 7 C-0.99 6.67 -1.98 6.34 -3 6 C-1.125 1.125 -1.125 1.125 0 0 Z " fill="#1968AD" transform="translate(956,760)"/>
<path d="M0 0 C3.93846154 3.32307692 3.93846154 3.32307692 4.25 6.75 C4.1675 7.4925 4.085 8.235 4 9 C1.18167487 7.59083743 0.97406539 5.92219617 0 3 C0 2.01 0 1.02 0 0 Z " fill="#1FACE7" transform="translate(957,472)"/>
<path d="M0 0 C4 4.625 4 4.625 4 8 C3.34 8 2.68 8 2 8 C0 6 0 6 -0.125 2.875 C-0.08375 1.92625 -0.0425 0.9775 0 0 Z " fill="#12A7DA" transform="translate(922,406)"/>
<path d="M0 0 C0.99 0 1.98 0 3 0 C1.55746343 3.36591866 -0.33264727 5.51047079 -3 8 C-2.45276317 4.62537285 -1.9451 2.91765 0 0 Z " fill="#145B9C" transform="translate(946,780)"/>
<path d="M0 0 C0.66 0 1.32 0 2 0 C2.33 2.64 2.66 5.28 3 8 C2.34 8 1.68 8 1 8 C0.67 5.36 0.34 2.72 0 0 Z " fill="#031B2E" transform="translate(849,549)"/>
</svg>
